<svg xmlns="http://www.w3.org/2000/svg" fill-rule="evenodd" stroke-linejoin="round" stroke-miterlimit="2" clip-rule="evenodd" viewBox="0 0 24 24" id="favorite">
  <path d="M12.951,1.601c-0.134,-0.412 -0.518,-0.691 -0.951,-0.691c-0.433,-0 -0.817,0.279 -0.951,0.691l-2.021,6.219c0,-0 -6.539,-0 -6.539,-0c-0.433,-0 -0.817,0.279 -0.951,0.691c-0.133,0.412 0.013,0.863 0.364,1.118l5.29,3.843c-0,0 -2.021,6.219 -2.021,6.219c-0.134,0.412 0.013,0.863 0.363,1.118c0.351,0.255 0.825,0.255 1.176,0l5.29,-3.843c-0,-0 5.29,3.843 5.29,3.843c0.351,0.255 0.825,0.255 1.176,0c0.35,-0.255 0.497,-0.706 0.363,-1.118l-2.021,-6.219c0,0 5.29,-3.843 5.29,-3.843c0.351,-0.255 0.497,-0.706 0.364,-1.118c-0.134,-0.412 -0.518,-0.691 -0.951,-0.691l-6.539,-0c-0,-0 -2.021,-6.219 -2.021,-6.219Z"></path>
</svg>
